<svg xmlns="http://www.w3.org/2000/svg" xmlns:xlink="http://www.w3.org/1999/xlink" width="816" zoomAndPan="magnify" viewBox="0 0 612 791.999994" height="1056" preserveAspectRatio="xMidYMid meet" version="1.2"><defs><clipPath id="0c736024fd"><path d="M 121.050781 113 L 222 113 L 222 192 L 121.050781 192 Z M 121.050781 113 "/></clipPath><clipPath id="2fe97c55ce"><path d="M 121.050781 232 L 182 232 L 182 291.351562 L 121.050781 291.351562 Z M 121.050781 232 "/></clipPath></defs><g id="64fb4cd51b"><rect x="0" width="612" y="0" height="791.999994" style="fill:#ffffff;fill-opacity:1;stroke:none;"/><rect x="0" width="612" y="0" height="791.999994" style="fill:#ffffff;fill-opacity:1;stroke:none;"/><g clip-rule="nonzero" clip-path="url(#0c736024fd)"><path style=" stroke:none;fill-rule:nonzero;fill:#f3ecdb;fill-opacity:1;" d="M 168.632812 190.398438 C 179.527344 179.503906 190.421875 168.609375 201.933594 157.101562 C 200.046875 156.945312 199.046875 156.753906 198.007812 156.753906 C 183.109375 156.753906 168.210938 156.675781 153.3125 156.832031 C 151.464844 156.867188 149.230469 157.792969 147.921875 159.0625 C 139.066406 167.6875 130.445312 176.503906 121.167969 185.78125 C 121.167969 161.257812 121.167969 137.464844 121.167969 113.289062 C 122.246094 113.214844 123.4375 113.058594 124.671875 113.058594 C 144.074219 113.058594 163.4375 113.019531 182.839844 113.058594 C 202.933594 113.097656 219.410156 129.035156 221.144531 150.015625 C 222.722656 168.996094 207.863281 187.703125 188.613281 190.476562 C 182.144531 191.402344 175.523438 191.167969 168.980469 191.476562 C 168.863281 191.09375 168.75 190.746094 168.632812 190.398438 Z M 168.632812 190.398438 "/></g><path style=" stroke:none;fill-rule:nonzero;fill:#f3ecdb;fill-opacity:1;" d="M 150.386719 207.914062 C 153.273438 205.222656 155.777344 202.757812 158.394531 200.523438 C 159.164062 199.871094 160.394531 199.40625 161.394531 199.40625 C 174.175781 199.484375 186.996094 198.984375 199.699219 199.910156 C 216.714844 201.140625 232.382812 215.191406 237.351562 232.324219 C 242.433594 249.722656 236.695312 269.316406 223.414062 280.097656 C 223.105469 280.367188 222.722656 280.519531 222.105469 280.945312 C 198.507812 256.882812 174.792969 232.746094 150.386719 207.914062 Z M 150.386719 207.914062 "/><g clip-rule="nonzero" clip-path="url(#2fe97c55ce)"><path style=" stroke:none;fill-rule:nonzero;fill:#f3ecdb;fill-opacity:1;" d="M 121.050781 291.183594 C 121.050781 271.28125 121.050781 251.609375 121.050781 232.976562 C 140.53125 251.839844 160.394531 271.089844 181.144531 291.183594 C 160.394531 291.183594 140.914062 291.183594 121.050781 291.183594 Z M 121.050781 291.183594 "/></g><g style="fill:#2b2b2b;fill-opacity:1;"><g transform="translate(165.489487, 233.434885)"><path style="stroke:none" d="M 2.984375 0 L 2.984375 -59.765625 L 15.203125 -59.765625 L 15.203125 -9.046875 L 30.484375 -9.046875 L 30.484375 0 Z M 2.984375 0 "/></g></g><g style="fill:#2b2b2b;fill-opacity:1;"><g transform="translate(197.934997, 233.434885)"><path style="stroke:none" d="M 0.515625 0 L 7.09375 -59.765625 L 27.671875 -59.765625 L 34.328125 0 L 21.859375 0 L 20.40625 -17.078125 L 14.4375 -17.078125 L 12.984375 0 Z M 15.109375 -26.125 L 19.640625 -26.125 L 17.421875 -53.203125 Z M 15.109375 -26.125 "/></g></g><g style="fill:#2b2b2b;fill-opacity:1;"><g transform="translate(232.771165, 233.434885)"><path style="stroke:none" d=""/></g></g><g style="fill:#2b2b2b;fill-opacity:1;"><g transform="translate(248.993886, 233.434885)"><path style="stroke:none" d="M 2.984375 0 L 2.984375 -59.765625 L 19.984375 -59.765625 C 25.222656 -59.765625 28.992188 -58.65625 31.296875 -56.4375 C 33.597656 -54.21875 34.75 -50.519531 34.75 -45.34375 C 34.75 -42.15625 34.25 -39.4375 33.25 -37.1875 C 32.257812 -34.9375 30.597656 -33.210938 28.265625 -32.015625 C 30.941406 -30.765625 32.832031 -28.859375 33.9375 -26.296875 C 35.050781 -23.734375 35.609375 -20.601562 35.609375 -16.90625 C 35.609375 -11.101562 34.46875 -6.832031 32.1875 -4.09375 C 29.914062 -1.363281 26.242188 0 21.171875 0 Z M 15.203125 -9.046875 L 19.046875 -9.046875 C 20.523438 -9.046875 21.601562 -9.785156 22.28125 -11.265625 C 22.96875 -12.742188 23.3125 -15.082031 23.3125 -18.28125 C 23.3125 -21.570312 22.925781 -23.929688 22.15625 -25.359375 C 21.382812 -26.785156 20.203125 -27.5 18.609375 -27.5 L 15.203125 -27.5 Z M 15.203125 -36.546875 L 18.015625 -36.546875 C 19.671875 -36.546875 20.820312 -37.113281 21.46875 -38.25 C 22.125 -39.394531 22.453125 -41.300781 22.453125 -43.96875 C 22.453125 -46.25 22.164062 -47.941406 21.59375 -49.046875 C 21.03125 -50.160156 20.007812 -50.71875 18.53125 -50.71875 L 15.203125 -50.71875 Z M 15.203125 -36.546875 "/></g></g><g style="fill:#2b2b2b;fill-opacity:1;"><g transform="translate(285.879233, 233.434885)"><path style="stroke:none" d="M 2.984375 0 L 2.984375 -59.765625 L 19.640625 -59.765625 C 23.285156 -59.765625 26.273438 -59.207031 28.609375 -58.09375 C 30.941406 -56.988281 32.691406 -55.15625 33.859375 -52.59375 C 35.023438 -50.039062 35.609375 -46.515625 35.609375 -42.015625 C 35.609375 -37.910156 35.109375 -34.460938 34.109375 -31.671875 C 33.117188 -28.890625 31.367188 -26.816406 28.859375 -25.453125 C 30.742188 -24.421875 32.195312 -22.992188 33.21875 -21.171875 C 34.238281 -19.347656 34.75 -17.269531 34.75 -14.9375 L 34.75 -9.734375 C 34.75 -8.535156 35.207031 -7.9375 36.125 -7.9375 L 38.765625 -7.9375 L 38.765625 0.515625 L 31.421875 0.515625 C 28.515625 0.515625 26.289062 -0.40625 24.75 -2.25 C 23.21875 -4.101562 22.453125 -6.457031 22.453125 -9.3125 L 22.453125 -15.109375 C 22.453125 -18.984375 20.488281 -20.921875 16.5625 -20.921875 L 15.203125 -20.921875 L 15.203125 0 Z M 15.203125 -30.0625 L 18.359375 -30.0625 C 20.234375 -30.0625 21.523438 -30.898438 22.234375 -32.578125 C 22.953125 -34.253906 23.3125 -37.03125 23.3125 -40.90625 C 23.3125 -44.4375 22.894531 -46.953125 22.0625 -48.453125 C 21.238281 -49.960938 20.003906 -50.71875 18.359375 -50.71875 L 15.203125 -50.71875 Z M 15.203125 -30.0625 "/></g></g><g style="fill:#2b2b2b;fill-opacity:1;"><g transform="translate(325.496834, 233.434885)"><path style="stroke:none" d="M 2.984375 0 L 2.984375 -59.765625 L 30.484375 -59.765625 L 30.484375 -50.71875 L 15.203125 -50.71875 L 15.203125 -34.5 L 26.296875 -34.5 L 26.296875 -25.359375 L 15.203125 -25.359375 L 15.203125 -9.046875 L 30.484375 -9.046875 L 30.484375 0 Z M 5.546875 -70.453125 L 7.9375 -78.5625 L 28.953125 -71.734375 L 26.5625 -63.609375 Z M 5.546875 -70.453125 "/></g></g><g style="fill:#2b2b2b;fill-opacity:1;"><g transform="translate(356.405299, 233.434885)"><path style="stroke:none" d="M 18.53125 0.859375 C 15 0.859375 11.976562 0.0625 9.46875 -1.53125 C 6.96875 -3.125 5.0625 -5.703125 3.75 -9.265625 C 2.445312 -12.828125 1.796875 -17.566406 1.796875 -23.484375 L 1.796875 -36.296875 C 1.796875 -45.117188 3.242188 -51.378906 6.140625 -55.078125 C 9.046875 -58.773438 13.175781 -60.625 18.53125 -60.625 C 23.9375 -60.625 27.976562 -59.285156 30.65625 -56.609375 C 33.332031 -53.929688 34.671875 -50.003906 34.671875 -44.828125 L 34.671875 -40.296875 L 22.375 -40.296875 L 22.375 -46.109375 C 22.375 -47.816406 22.046875 -49.15625 21.390625 -50.125 C 20.734375 -51.09375 19.78125 -51.578125 18.53125 -51.578125 C 16.820312 -51.578125 15.65625 -50.75 15.03125 -49.09375 C 14.40625 -47.445312 14.09375 -45.203125 14.09375 -42.359375 L 14.09375 -17.421875 C 14.09375 -14.460938 14.40625 -12.1875 15.03125 -10.59375 C 15.65625 -9 16.820312 -8.203125 18.53125 -8.203125 C 19.78125 -8.203125 20.734375 -8.679688 21.390625 -9.640625 C 22.046875 -10.609375 22.375 -11.945312 22.375 -13.65625 L 22.375 -19.546875 L 34.671875 -19.546875 L 34.671875 -14.9375 C 34.671875 -9.757812 33.332031 -5.832031 30.65625 -3.15625 C 27.976562 -0.476562 23.9375 0.859375 18.53125 0.859375 Z M 18.53125 0.859375 "/></g></g><g style="fill:#2b2b2b;fill-opacity:1;"><g transform="translate(392.522221, 233.434885)"><path style="stroke:none" d="M 23.3125 0 L 23.3125 -25.359375 L 15.203125 -25.359375 L 15.203125 0 L 2.984375 0 L 2.984375 -59.765625 L 15.203125 -59.765625 L 15.203125 -34.40625 L 23.3125 -34.40625 L 23.3125 -59.765625 L 35.609375 -59.765625 L 35.609375 0 Z M 23.3125 0 "/></g></g><g style="fill:#2b2b2b;fill-opacity:1;"><g transform="translate(431.115221, 233.434885)"><path style="stroke:none" d="M 2.984375 0 L 2.984375 -59.765625 L 30.484375 -59.765625 L 30.484375 -50.71875 L 15.203125 -50.71875 L 15.203125 -34.5 L 26.296875 -34.5 L 26.296875 -25.359375 L 15.203125 -25.359375 L 15.203125 -9.046875 L 30.484375 -9.046875 L 30.484375 0 Z M 2.984375 0 "/></g></g><g style="fill:#7a65bf;fill-opacity:1;"><g transform="translate(231.736807, 168.546458)"><path style="stroke:none" d="M 4.640625 0.21875 C 3.203125 0.21875 2.175781 -0.363281 1.5625 -1.53125 C 0.957031 -2.707031 0.65625 -4.550781 0.65625 -7.0625 L 0.65625 -8.78125 C 0.65625 -11.21875 0.957031 -13.039062 1.5625 -14.25 C 2.175781 -15.457031 3.203125 -16.0625 4.640625 -16.0625 C 5.816406 -16.0625 6.703125 -15.691406 7.296875 -14.953125 C 7.890625 -14.210938 8.1875 -13.195312 8.1875 -11.90625 L 8.1875 -11.265625 L 6.328125 -11.265625 L 6.328125 -12.0625 C 6.328125 -12.84375 6.1875 -13.46875 5.90625 -13.9375 C 5.632812 -14.40625 5.210938 -14.640625 4.640625 -14.640625 C 4.066406 -14.640625 3.625 -14.429688 3.3125 -14.015625 C 3 -13.597656 2.785156 -13.007812 2.671875 -12.25 C 2.566406 -11.488281 2.515625 -10.597656 2.515625 -9.578125 L 2.515625 -6.265625 C 2.515625 -4.671875 2.648438 -3.425781 2.921875 -2.53125 C 3.191406 -1.644531 3.765625 -1.203125 4.640625 -1.203125 C 5.210938 -1.203125 5.632812 -1.4375 5.90625 -1.90625 C 6.1875 -2.375 6.328125 -3 6.328125 -3.78125 L 6.328125 -4.5625 L 8.1875 -4.5625 L 8.1875 -3.9375 C 8.1875 -2.632812 7.890625 -1.613281 7.296875 -0.875 C 6.703125 -0.144531 5.816406 0.21875 4.640625 0.21875 Z M 4.640625 0.21875 "/></g></g><g style="fill:#7a65bf;fill-opacity:1;"><g transform="translate(243.114134, 168.546458)"><path style="stroke:none" d="M 4.5 0.21875 C 3.175781 0.21875 2.203125 -0.351562 1.578125 -1.5 C 0.960938 -2.65625 0.65625 -4.507812 0.65625 -7.0625 L 0.65625 -8.78125 C 0.65625 -11.34375 0.960938 -13.195312 1.578125 -14.34375 C 2.203125 -15.488281 3.175781 -16.0625 4.5 -16.0625 C 5.832031 -16.0625 6.800781 -15.484375 7.40625 -14.328125 C 8.019531 -13.179688 8.328125 -11.332031 8.328125 -8.78125 L 8.328125 -7.0625 C 8.328125 -4.507812 8.019531 -2.65625 7.40625 -1.5 C 6.800781 -0.351562 5.832031 0.21875 4.5 0.21875 Z M 2.515625 -6.328125 C 2.515625 -4.640625 2.65625 -3.363281 2.9375 -2.5 C 3.226562 -1.632812 3.75 -1.203125 4.5 -1.203125 C 5.257812 -1.203125 5.773438 -1.632812 6.046875 -2.5 C 6.328125 -3.363281 6.46875 -4.640625 6.46875 -6.328125 L 6.46875 -9.5 C 6.46875 -11.207031 6.328125 -12.488281 6.046875 -13.34375 C 5.773438 -14.207031 5.257812 -14.640625 4.5 -14.640625 C 3.75 -14.640625 3.226562 -14.207031 2.9375 -13.34375 C 2.65625 -12.488281 2.515625 -11.207031 2.515625 -9.5 Z M 2.515625 -6.328125 "/></g></g><g style="fill:#7a65bf;fill-opacity:1;"><g transform="translate(254.695005, 168.546458)"><path style="stroke:none" d="M 1.109375 0 L 1.109375 -15.84375 L 2.96875 -15.84375 L 2.96875 -1.421875 L 7.4375 -1.421875 L 7.4375 0 Z M 1.109375 0 "/></g></g><g style="fill:#7a65bf;fill-opacity:1;"><g transform="translate(264.941472, 168.546458)"><path style="stroke:none" d="M 1.109375 0 L 1.109375 -15.84375 L 2.96875 -15.84375 L 2.96875 -1.421875 L 7.4375 -1.421875 L 7.4375 0 Z M 1.109375 0 "/></g></g><g style="fill:#7a65bf;fill-opacity:1;"><g transform="translate(275.187939, 168.546458)"><path style="stroke:none" d="M 1.109375 0 L 1.109375 -15.84375 L 7.4375 -15.84375 L 7.4375 -14.40625 L 2.96875 -14.40625 L 2.96875 -8.640625 L 6.265625 -8.640625 L 6.265625 -7.21875 L 2.96875 -7.21875 L 2.96875 -1.421875 L 7.4375 -1.421875 L 7.4375 0 Z M 1.109375 0 "/></g></g><g style="fill:#7a65bf;fill-opacity:1;"><g transform="translate(285.479587, 168.546458)"><path style="stroke:none" d="M 4.640625 0.21875 C 3.203125 0.21875 2.175781 -0.363281 1.5625 -1.53125 C 0.957031 -2.707031 0.65625 -4.550781 0.65625 -7.0625 L 0.65625 -8.78125 C 0.65625 -11.21875 0.957031 -13.039062 1.5625 -14.25 C 2.175781 -15.457031 3.203125 -16.0625 4.640625 -16.0625 C 5.816406 -16.0625 6.703125 -15.691406 7.296875 -14.953125 C 7.890625 -14.210938 8.1875 -13.195312 8.1875 -11.90625 L 8.1875 -11.265625 L 6.328125 -11.265625 L 6.328125 -12.0625 C 6.328125 -12.84375 6.1875 -13.46875 5.90625 -13.9375 C 5.632812 -14.40625 5.210938 -14.640625 4.640625 -14.640625 C 4.066406 -14.640625 3.625 -14.429688 3.3125 -14.015625 C 3 -13.597656 2.785156 -13.007812 2.671875 -12.25 C 2.566406 -11.488281 2.515625 -10.597656 2.515625 -9.578125 L 2.515625 -6.265625 C 2.515625 -4.671875 2.648438 -3.425781 2.921875 -2.53125 C 3.191406 -1.644531 3.765625 -1.203125 4.640625 -1.203125 C 5.210938 -1.203125 5.632812 -1.4375 5.90625 -1.90625 C 6.1875 -2.375 6.328125 -3 6.328125 -3.78125 L 6.328125 -4.5625 L 8.1875 -4.5625 L 8.1875 -3.9375 C 8.1875 -2.632812 7.890625 -1.613281 7.296875 -0.875 C 6.703125 -0.144531 5.816406 0.21875 4.640625 0.21875 Z M 4.640625 0.21875 "/></g></g><g style="fill:#7a65bf;fill-opacity:1;"><g transform="translate(296.721198, 168.546458)"><path style="stroke:none" d="M 2.671875 0 L 2.671875 -14.40625 L 0.21875 -14.40625 L 0.21875 -15.84375 L 6.984375 -15.84375 L 6.984375 -14.40625 L 4.53125 -14.40625 L 4.53125 0 Z M 2.671875 0 "/></g></g><g style="fill:#7a65bf;fill-opacity:1;"><g transform="translate(306.515326, 168.546458)"><path style="stroke:none" d="M 1.109375 0 L 1.109375 -15.84375 L 2.96875 -15.84375 L 2.96875 0 Z M 1.109375 0 "/></g></g><g style="fill:#7a65bf;fill-opacity:1;"><g transform="translate(313.143057, 168.546458)"><path style="stroke:none" d="M 1.109375 0 L 1.109375 -15.84375 L 7.4375 -15.84375 L 7.4375 -14.40625 L 2.96875 -14.40625 L 2.96875 -7.84375 L 6.265625 -7.84375 L 6.265625 -6.421875 L 2.96875 -6.421875 L 2.96875 0 Z M 1.109375 0 "/></g></g><g style="fill:#7a65bf;fill-opacity:1;"><g transform="translate(323.6704, 168.546458)"><path style="stroke:none" d=""/></g></g><g style="fill:#7a65bf;fill-opacity:1;"><g transform="translate(330.886175, 168.546458)"><path style="stroke:none" d=""/></g></g><g style="fill:#7a65bf;fill-opacity:1;"><g transform="translate(338.101949, 168.546458)"><path style="stroke:none" d=""/></g></g><g style="fill:#7a65bf;fill-opacity:1;"><g transform="translate(345.317723, 168.546458)"><path style="stroke:none" d=""/></g></g><g style="fill:#7a65bf;fill-opacity:1;"><g transform="translate(352.533497, 168.546458)"><path style="stroke:none" d=""/></g></g><g style="fill:#7a65bf;fill-opacity:1;"><g transform="translate(359.752426, 168.546458)"><path style="stroke:none" d="M 1.109375 0 L 1.109375 -15.84375 L 7.4375 -15.84375 L 7.4375 -14.40625 L 2.96875 -14.40625 L 2.96875 -7.84375 L 6.265625 -7.84375 L 6.265625 -6.421875 L 2.96875 -6.421875 L 2.96875 0 Z M 1.109375 0 "/></g></g><g style="fill:#7a65bf;fill-opacity:1;"><g transform="translate(370.270301, 168.546458)"><path style="stroke:none" d="M 1.109375 0 L 1.109375 -15.84375 L 7.4375 -15.84375 L 7.4375 -14.40625 L 2.96875 -14.40625 L 2.96875 -8.640625 L 6.265625 -8.640625 L 6.265625 -7.21875 L 2.96875 -7.21875 L 2.96875 -1.421875 L 7.4375 -1.421875 L 7.4375 0 Z M 1.859375 -18.4375 L 6.515625 -20.109375 L 6.921875 -18.84375 L 2.265625 -17.171875 Z M 1.859375 -18.4375 "/></g></g><g style="fill:#7a65bf;fill-opacity:1;"><g transform="translate(381.014346, 168.546458)"><path style="stroke:none" d="M 0.15625 0 L 2.1875 -15.84375 L 4.65625 -15.84375 L 6.265625 -5.265625 L 7.875 -15.84375 L 10.3125 -15.84375 L 12.359375 0 L 10.5 0 L 8.890625 -11.875 L 7.078125 0 L 5.4375 0 L 3.625 -11.8125 L 2.015625 0 Z M 0.15625 0 "/></g></g><g style="fill:#7a65bf;fill-opacity:1;"><g transform="translate(396.100874, 168.546458)"><path style="stroke:none" d="M 1.109375 0 L 1.109375 -15.84375 L 2.96875 -15.84375 L 2.96875 0 Z M 1.109375 0 "/></g></g><g style="fill:#7a65bf;fill-opacity:1;"><g transform="translate(402.728605, 168.546458)"><path style="stroke:none" d="M 1.109375 0 L 1.109375 -15.84375 L 2.8125 -15.84375 L 6.65625 -4.8125 L 6.65625 -15.84375 L 8.484375 -15.84375 L 8.484375 0 L 6.78125 0 L 2.96875 -11.109375 L 2.96875 0 Z M 1.109375 0 "/></g></g><g style="fill:#7a65bf;fill-opacity:1;"><g transform="translate(414.897531, 168.546458)"><path style="stroke:none" d="M 1.109375 0 L 1.109375 -15.84375 L 2.96875 -15.84375 L 2.96875 0 Z M 1.109375 0 "/></g></g><g style="fill:#7a65bf;fill-opacity:1;"><g transform="translate(421.525262, 168.546458)"><path style="stroke:none" d="M 4.4375 0.21875 C 3.1875 0.21875 2.242188 -0.117188 1.609375 -0.796875 C 0.984375 -1.472656 0.671875 -2.40625 0.671875 -3.59375 L 0.671875 -4.203125 L 2.515625 -4.203125 L 2.515625 -3.390625 C 2.515625 -2.703125 2.671875 -2.148438 2.984375 -1.734375 C 3.304688 -1.328125 3.789062 -1.125 4.4375 -1.125 C 5.070312 -1.125 5.546875 -1.347656 5.859375 -1.796875 C 6.171875 -2.253906 6.328125 -2.878906 6.328125 -3.671875 L 6.328125 -4.125 C 6.328125 -4.8125 6.191406 -5.390625 5.921875 -5.859375 C 5.648438 -6.335938 5.253906 -6.726562 4.734375 -7.03125 L 3.296875 -7.84375 C 2.578125 -8.257812 1.984375 -8.800781 1.515625 -9.46875 C 1.046875 -10.132812 0.8125 -11 0.8125 -12.0625 L 0.8125 -12.234375 C 0.8125 -13.460938 1.148438 -14.40625 1.828125 -15.0625 C 2.503906 -15.726562 3.375 -16.0625 4.4375 -16.0625 C 5.5625 -16.0625 6.441406 -15.757812 7.078125 -15.15625 C 7.722656 -14.550781 8.046875 -13.738281 8.046875 -12.71875 L 8.046875 -12.109375 L 6.203125 -12.109375 L 6.203125 -12.875 C 6.203125 -13.425781 6.035156 -13.875 5.703125 -14.21875 C 5.367188 -14.5625 4.945312 -14.734375 4.4375 -14.734375 C 3.90625 -14.734375 3.476562 -14.535156 3.15625 -14.140625 C 2.832031 -13.742188 2.671875 -13.207031 2.671875 -12.53125 L 2.671875 -12.109375 C 2.671875 -11.453125 2.804688 -10.910156 3.078125 -10.484375 C 3.347656 -10.066406 3.695312 -9.734375 4.125 -9.484375 L 5.515625 -8.671875 C 6.359375 -8.203125 7.015625 -7.601562 7.484375 -6.875 C 7.953125 -6.15625 8.1875 -5.257812 8.1875 -4.1875 L 8.1875 -3.953125 C 8.1875 -2.703125 7.863281 -1.691406 7.21875 -0.921875 C 6.570312 -0.160156 5.644531 0.21875 4.4375 0.21875 Z M 4.4375 0.21875 "/></g></g><g style="fill:#7a65bf;fill-opacity:1;"><g transform="translate(432.585896, 168.546458)"><path style="stroke:none" d="M 2.671875 0 L 2.671875 -14.40625 L 0.21875 -14.40625 L 0.21875 -15.84375 L 6.984375 -15.84375 L 6.984375 -14.40625 L 4.53125 -14.40625 L 4.53125 0 Z M 2.671875 0 "/></g></g><g style="fill:#7a65bf;fill-opacity:1;"><g transform="translate(442.380024, 168.546458)"><path style="stroke:none" d="M 1.109375 0 L 1.109375 -15.84375 L 7.4375 -15.84375 L 7.4375 -14.40625 L 2.96875 -14.40625 L 2.96875 -8.640625 L 6.265625 -8.640625 L 6.265625 -7.21875 L 2.96875 -7.21875 L 2.96875 -1.421875 L 7.4375 -1.421875 L 7.4375 0 Z M 1.109375 0 "/></g></g></g></svg>